<?xml version="1.0" ?><!DOCTYPE svg  PUBLIC '-//W3C//DTD SVG 1.1//EN'  'http://www.w3.org/Graphics/SVG/1.1/DTD/svg11.dtd'><svg height="512px" style="enable-background:new 0 0 512 512;" version="1.1" viewBox="0 0 512 512" width="512px" xml:space="preserve" xmlns="http://www.w3.org/2000/svg" xmlns:xlink="http://www.w3.org/1999/xlink"><g id="_x31_74_x2C__Diamond_x2C__ecommerce_x2C__jewelry_x2C__jewel"><g id="XMLID_13064_"><polygon id="XMLID_13065_" points="129.814,85.502 82.498,164.362 169.244,164.362   "/><polygon id="XMLID_13066_" points="241.645,80.486 137.725,80.486 177.694,160.424   "/><polygon id="XMLID_13067_" points="324.754,164.362 251.549,83.024 186.479,164.362   "/><polygon id="XMLID_13068_" points="374.274,80.486 261.803,80.486 334.106,160.822   "/><polygon id="XMLID_13069_" points="82.976,173.682 247.232,420.067 173.316,173.682   "/><polygon id="XMLID_13070_" points="183.046,173.682 260.396,431.514 329.151,173.682   "/><polygon id="XMLID_13071_" points="429.502,164.362 382.186,85.502 342.756,164.362   "/><polygon id="XMLID_13072_" points="273.001,420.414 429.265,173.682 338.796,173.682   "/><path d="M163.736,369.393h-13.979v-13.979c0-2.574-2.087-4.66-4.66-4.66s-4.659,2.086-4.659,4.66v13.979    h-13.979c-2.573,0-4.66,2.086-4.66,4.659c0,2.574,2.087,4.66,4.66,4.66h13.979v13.979c0,2.574,2.086,4.66,4.659,4.66    s4.66-2.086,4.66-4.66v-13.979h13.979c2.573,0,4.659-2.086,4.659-4.66C168.396,371.479,166.31,369.393,163.736,369.393z" id="XMLID_13073_"/><path d="M415.365,304.155h-13.979v-13.979c0-2.573-2.086-4.659-4.66-4.659s-4.66,2.086-4.66,4.659v13.979    h-13.979c-2.573,0-4.659,2.086-4.659,4.66c0,2.573,2.086,4.659,4.659,4.659h13.979v13.979c0,2.574,2.086,4.66,4.66,4.66    s4.66-2.086,4.66-4.66v-13.979h13.979c2.573,0,4.659-2.086,4.659-4.659C420.024,306.241,417.938,304.155,415.365,304.155z" id="XMLID_13074_"/></g></g><g id="Layer_1"/></svg>